# xmcd
# 
# Track frame offsets:
#     150
#     24580
#     44880
#     60417
#     75310
#     92557
#     109150
#     134085
#     139222
#     161272
#     170447
#     182802
#     203992
#     218697
# 
# Disc length: 3116
# 
# Revision: 0
# Processed by: cddbd v1.5.2PL0 Copyright (c) Steve Scherf et al.
# Submitted via: fre:ac v1.0.27
# 
DISCID=c30c2a0e
DTITLE=Kumquat - Similar to Sugar Pill
DYEAR=2007
DGENRE=Experimental
TTITLE0=any kind of juice
TTITLE1=herbert hoover
TTITLE2=magic boots
TTITLE3=beja
TTITLE4=about my spices
TTITLE5=gadzooks
TTITLE6=change the world outside
TTITLE7=all here today feel it
TTITLE8=big honking radio
TTITLE9=we are the aliens
TTITLE10=centipede stings
TTITLE11=cycling on the peninsula
TTITLE12=only robots
TTITLE13=kentucky
EXTD=
EXTT0=
EXTT1=
EXTT2=
EXTT3=
EXTT4=
EXTT5=
EXTT6=
EXTT7=
EXTT8=
EXTT9=
EXTT10=
EXTT11=
EXTT12=
EXTT13=
PLAYORDER=
